<svg width="113" height="32" viewBox="0 0 113 32" fill="none" xmlns="http://www.w3.org/2000/svg">
<path d="M43.0175 21.2332L51.7759 10.5151H43.3563V7.0311H56.5422V10.007L48.1951 20.7251H56.639V24.2091H43.0175V21.2332ZM57.8994 20.4106C57.8994 19.5719 58.1332 18.838 58.601 18.2089C59.0688 17.5799 59.7139 17.0879 60.5366 16.7331C61.3592 16.3621 62.3027 16.1766 63.3673 16.1766C63.8834 16.1766 64.3915 16.225 64.8915 16.3218C65.3916 16.4024 65.8271 16.5234 66.198 16.6847V16.1282C66.198 15.4346 65.9884 14.9024 65.569 14.5314C65.1496 14.1604 64.5125 13.9749 63.6576 13.9749C62.9479 13.9749 62.2785 14.0959 61.6495 14.3378C61.0366 14.5798 60.3833 14.9265 59.6897 15.3782L58.5284 12.9103C59.3672 12.3619 60.2382 11.9506 61.1414 11.6764C62.0608 11.4022 63.0286 11.2651 64.0447 11.2651C65.948 11.2651 67.4239 11.7248 68.4723 12.6442C69.5369 13.5475 70.0692 14.862 70.0692 16.5879V19.9025C70.0692 20.2896 70.1256 20.5638 70.2385 20.7251C70.3675 20.8703 70.5853 20.959 70.8918 20.9913V24.2091C70.5692 24.2737 70.2627 24.322 69.9724 24.3543C69.6982 24.3866 69.4562 24.4027 69.2465 24.4027C68.5207 24.4027 67.9642 24.2575 67.5771 23.9672C67.2061 23.6769 66.9723 23.2817 66.8755 22.7817L66.8029 22.2252C66.2384 22.951 65.5609 23.5075 64.7706 23.8946C63.9964 24.2656 63.1818 24.4511 62.3269 24.4511C61.4882 24.4511 60.7301 24.2737 60.0527 23.9188C59.3914 23.564 58.8671 23.0801 58.48 22.4671C58.0929 21.8542 57.8994 21.1687 57.8994 20.4106ZM65.5932 20.8945C65.7706 20.7493 65.9158 20.588 66.0287 20.4106C66.1416 20.2332 66.198 20.0638 66.198 19.9025V18.7654C65.8755 18.6364 65.5125 18.5396 65.1093 18.4751C64.7222 18.3944 64.3593 18.3541 64.0205 18.3541C63.3108 18.3541 62.7221 18.5154 62.2544 18.838C61.7866 19.1444 61.5527 19.5557 61.5527 20.0719C61.5527 20.3622 61.6334 20.6284 61.7947 20.8703C61.956 21.1123 62.1737 21.3058 62.4479 21.451C62.7382 21.5961 63.077 21.6687 63.4641 21.6687C63.8512 21.6687 64.2383 21.5961 64.6254 21.451C65.0125 21.3058 65.3351 21.1203 65.5932 20.8945ZM80.9309 14.8217C79.9954 14.8217 79.1486 14.9749 78.3905 15.2814C77.6324 15.5717 77.084 16.0072 76.7453 16.5879V24.2091H72.8742V11.5071H76.4308V14.0717C76.8663 13.2168 77.4308 12.5474 78.1244 12.0635C78.818 11.5797 79.5438 11.3296 80.3019 11.3135C80.4793 11.3135 80.6083 11.3135 80.689 11.3135C80.7858 11.3135 80.8664 11.3216 80.9309 11.3377V14.8217ZM90.6181 14.8217C89.6826 14.8217 88.8358 14.9749 88.0777 15.2814C87.3196 15.5717 86.7712 16.0072 86.4325 16.5879V24.2091H82.5614V11.5071H86.118V14.0717C86.5535 13.2168 87.118 12.5474 87.8116 12.0635C88.5052 11.5797 89.231 11.3296 89.9891 11.3135C90.1665 11.3135 90.2956 11.3135 90.3762 11.3135C90.473 11.3135 90.5536 11.3216 90.6181 11.3377V14.8217ZM92.2486 24.2091V11.5071H96.1197V24.2091H92.2486ZM92.2486 10.0554V6.54722H96.1197V10.0554H92.2486ZM111.012 24.2091H107.141V17.0718C107.141 16.233 106.98 15.6282 106.657 15.2572C106.351 14.8701 105.939 14.6765 105.423 14.6765C105.068 14.6765 104.705 14.7733 104.334 14.9669C103.964 15.1604 103.625 15.4266 103.318 15.7653C103.028 16.104 102.802 16.4911 102.641 16.9266V24.2091H98.7698V11.5071H102.254V13.6362C102.576 13.1362 102.98 12.7087 103.463 12.3539C103.947 11.999 104.504 11.7329 105.133 11.5555C105.762 11.3619 106.447 11.2651 107.189 11.2651C108.012 11.2651 108.673 11.4184 109.173 11.7248C109.69 12.0152 110.077 12.4023 110.335 12.8862C110.609 13.37 110.786 13.8943 110.867 14.4588C110.964 15.0072 111.012 15.5475 111.012 16.0798V24.2091Z" fill="#333333"/>
<path d="M3.51069 27.983C0.784168 25.2941 -0.494954 21.2048 0.273807 17.4465C1.03429 13.2257 4.31256 9.54649 8.45246 8.38691C10.4792 10.4431 12.5317 12.4716 14.5676 14.5168C14.9869 14.9214 15.3713 15.3618 15.8237 15.7306C14.3809 15.7453 12.9354 15.692 11.4944 15.7481C9.50353 15.874 7.81704 17.7518 7.92831 19.7482C7.90992 21.763 9.71687 23.5837 11.7326 23.5718C15.6978 23.581 19.662 23.5709 23.6254 23.5782C26.2305 26.1861 28.8311 28.7995 31.45 31.3946C31.0454 31.4718 30.6343 31.4506 30.226 31.447C24.1118 31.4479 17.9994 31.447 11.8871 31.4479C8.78719 31.4562 5.69008 30.1982 3.51069 27.983Z" fill="#7C4EE4"/>
<path d="M7.72439 7.6922C5.14683 5.13212 2.60882 2.52974 -1.00827e-06 0C6.10227 0.0239083 12.2036 0.00367683 18.3059 0.0110332C19.3303 0.0248271 20.3648 -0.0468969 21.3772 0.145293C23.9723 0.503005 26.4303 1.77293 28.2262 3.67828C30.2226 5.74823 31.3904 8.57867 31.4815 11.4496C31.5495 13.8156 30.8801 16.2001 29.5991 18.19C28.0919 20.5046 25.7627 22.3345 23.083 23.0665C21.0821 21.0333 19.0498 19.0287 17.036 17.0065C16.6304 16.6304 16.2902 16.1798 15.8249 15.869C15.904 15.8037 15.9895 15.7486 16.0833 15.7044C17.3624 15.7311 18.6443 15.7274 19.9243 15.7109C21.9106 15.6557 23.6541 13.8404 23.6146 11.8514C23.6725 10.2357 22.5791 8.6835 21.072 8.129C20.4972 7.88071 19.8627 7.87704 19.2475 7.88255C15.5343 7.88623 11.822 7.88164 8.10969 7.88531C7.95428 7.88623 7.82554 7.82186 7.72439 7.6922Z" fill="#7C4EE4"/>
</svg>
